<?xml version="1.0" encoding="UTF-8"?>
<svg xmlns="http://www.w3.org/2000/svg" version="1.1" viewBox="260 380 1400 340">
  <!-- Generator: Adobe Illustrator 29.8.6, SVG Export Plug-In . SVG Version: 2.1.1 Build 1)  -->
  <defs>
    <style>
      .st0 {
        fill: #fff;
      }
    </style>
  </defs>
  <g id="Layer_8">
    <path class="st0" d="M633.35,521.01c-.5-15.57-2.28-30.99-7.5-46.28-7.36-21.5-19.64-41.78-37.07-56.56-14.21-12.07-31.78-19.85-50.49-21.21-53.92-4-83.41,47.2-111.9,96.69l-6.43,11.14c-11.36,19.57-20.93,35.92-29.64,50.78-3.64-10.86-5.64-22.5-5.64-34.56h-33.57c0,25.42,6.71,49.21,18.43,69.84-2.64,4.5-5.28,9-7.93,13.57-8.29,14-17,28.64-27.07,45.85l28.92,17c10.07-17.14,18.78-31.85,26.99-45.78.36-.57.64-1.14,1-1.64,25.64,26.21,61.41,42.49,100.98,42.49,43.06,0,81.55-19.35,107.55-49.78v70.7h33.56v-127.9c0-11.57.21-23-.21-34.35ZM599.77,526c-.99,21.7-8.4,42.96-21.93,60.58-18.71,24.37-47.49,39.92-78.17,41.96-2.4.16-4.81.24-7.22.24-33.42,0-63.34-15.28-83.12-39.21,11.5-19.57,23.78-40.56,39.7-67.91l6.5-11.28c29.49-51.27,49.56-82.27,80.27-79.91,29.74,2.2,49.33,28.93,58.23,55.07,4.47,13.14,6.36,26.89,5.74,40.47Z"/>
  </g>
  <g id="Layer_7">
    <path class="st0" d="M822.53,580.78c0-48.06-28.21-81.48-80.34-81.48s-88.98,34.92-88.98,93.48,35.28,90.48,89.34,90.48c44.63,0,69.84-22.14,78.84-56.63h-31.99c-6.93,16.35-19.92,28.14-46.85,28.14-33.42,0-53.35-18.78-56.7-52.92h135.9c.78-8.28.78-15.42.78-21.07ZM686.63,576.28c4.5-32.64,24.35-48.77,54.42-48.77,32.28,0,48.42,17.64,50.7,48.77h-105.12Z"/>
  </g>
  <g id="Layer_6">
    <path class="st0" d="M843.17,449.02v234.24h32.64v-234.24h-32.64Z"/>
  </g>
  <g id="Layer_5">
    <path class="st0" d="M1065.76,580.78c0-48.06-28.14-81.48-80.34-81.48s-88.91,34.92-88.91,93.48,35.28,90.48,89.34,90.48c44.63,0,69.77-22.14,78.84-56.63h-31.99c-6.93,16.35-19.92,28.14-46.85,28.14-33.42,0-53.35-18.78-56.7-52.92h135.9c.71-8.28.71-15.42.71-21.07ZM929.86,576.28c4.5-32.64,24.42-48.77,54.49-48.77,32.28,0,48.42,17.64,50.63,48.77h-105.12Z"/>
  </g>
  <g id="Layer_4">
    <path class="st0" d="M1208.45,499.3l-25.14,71.77c-9.78,25.5-20.28,54.06-28.92,78.05h-.71c-8.64-23.64-19.57-52.2-29.28-78.05l-25.57-71.77h-35.64l72.41,183.96h36.42l70.99-183.96h-34.56Z"/>
  </g>
  <g id="Layer_3">
    <path class="st0" d="M1409.34,580.78c0-48.06-28.14-81.48-80.34-81.48s-88.98,34.92-88.98,93.48,35.28,90.48,89.34,90.48c44.7,0,69.84-22.14,78.84-56.63h-31.99c-6.93,16.35-19.85,28.14-46.85,28.14-33.42,0-53.28-18.78-56.7-52.92h135.9c.79-8.28.79-15.42.79-21.07ZM1273.44,576.28c4.5-32.64,24.42-48.77,54.42-48.77,32.28,0,48.42,17.64,50.7,48.77h-105.12Z"/>
  </g>
  <g id="Layer_2">
    <path class="st0" d="M1582.37,547.29c-2.64-8.29-6.86-16-12.43-22.71-2.5-3-5.28-5.71-8.21-8.28-23.14-19.64-65.27-23.07-88.91-2.5-3.43,3-9.78,9.14-10.43,10.71l.29-25.21h-32.71v183.96h32.71v-108.12c0-29.28,18-46.13,47.99-46.13,31.92,0,42.06,22.14,42.06,46.13v108.12h32.71v-116.33c0-6.64-1.07-13.28-3.07-19.64Z"/>
  </g>
</svg>