<svg xmlns="http://www.w3.org/2000/svg" version="1.1" viewBox="185.714 271.428 1000 242.857" width="1000" height="242.857"><defs><style>.st0 {
        fill: #fff;
      }</style></defs><g id="Layer_8"><path class="st0" d="M452.392 372.15c-0.357 -11.122 -1.628 -22.136 -5.358 -33.057 -5.258 -15.357 -14.028 -29.843 -26.478 -40.4 -10.15 -8.622 -22.7 -14.178 -36.064 -15.15 -38.514 -2.857 -59.578 33.714 -79.928 69.064l-4.593 7.957a9562.5 9562.5 0 0 1 -21.172 36.272 77.583 77.583 0 0 1 -4.028 -24.686h-23.978c0 18.158 4.793 35.15 13.164 49.886 -1.886 3.214 -3.772 6.428 -5.664 9.693 -5.922 10 -12.143 20.457 -19.336 32.75l20.658 12.143c7.193 -12.243 13.414 -22.75 19.278 -32.7 0.258 -0.408 0.458 -0.814 0.714 -1.172 18.314 18.722 43.864 30.35 72.128 30.35 30.758 0 58.25 -13.822 76.822 -35.557v50.5h23.972V396.684c0 -8.264 0.15 -16.428 -0.15 -24.536Zm-23.985 3.564c-0.708 15.5 -6 30.686 -15.664 43.272 -13.364 17.407 -33.922 28.514 -55.836 29.972a77.5 77.5 0 0 1 -5.158 0.172c-23.872 0 -45.242 -10.914 -59.372 -28.008a13237.5 13237.5 0 0 0 28.358 -48.508l4.643 -8.058c21.064 -36.622 35.4 -58.764 57.336 -57.078 21.242 1.572 35.236 20.664 41.593 39.336a78.667 78.667 0 0 1 4.1 28.908Z"/></g><g id="Layer_7"><path class="st0" d="M587.522 414.842c0 -34.328 -20.15 -58.2 -57.386 -58.2s-63.558 24.943 -63.558 66.772 25.2 64.628 63.814 64.628c31.878 0 49.886 -15.814 56.314 -40.45h-22.849c-4.95 11.678 -14.228 20.1 -33.464 20.1 -23.872 0 -38.108 -13.414 -40.5 -37.8h97.072c0.558 -5.914 0.558 -11.014 0.558 -15.05m-97.072 -3.214c3.214 -23.314 17.392 -34.836 38.872 -34.836 23.058 0 34.586 12.6 36.214 34.836z"/></g><g id="Layer_6"><path class="st0" d="M602.264 320.728v167.314h23.314V320.728z"/></g><g id="Layer_5"><path class="st0" d="M761.258 414.842c0 -34.328 -20.1 -58.2 -57.386 -58.2s-63.508 24.943 -63.508 66.772 25.2 64.628 63.814 64.628c31.878 0 49.836 -15.814 56.314 -40.45h-22.85c-4.95 11.678 -14.228 20.1 -33.464 20.1 -23.872 0 -38.108 -13.414 -40.5 -37.8H760.75c0.508 -5.914 0.508 -11.014 0.508 -15.05m-97.072 -3.214c3.214 -23.314 17.443 -34.836 38.922 -34.836 23.058 0 34.586 12.6 36.164 34.836z"/></g><g id="Layer_4"><path class="st0" d="m863.178 356.643 -17.957 51.264c-6.986 18.214 -14.486 38.614 -20.658 55.75h-0.508c-6.172 -16.886 -13.978 -37.286 -20.914 -55.75l-18.264 -51.264h-25.457l51.722 131.4h26.014l50.707 -131.4z"/></g><g id="Layer_3"><path class="st0" d="M1006.672 414.842c0 -34.328 -20.1 -58.2 -57.386 -58.2s-63.558 24.943 -63.558 66.772 25.2 64.628 63.814 64.628c31.928 0 49.886 -15.814 56.314 -40.45h-22.85c-4.95 11.678 -14.178 20.1 -33.464 20.1 -23.872 0 -38.057 -13.414 -40.5 -37.8h97.072c0.564 -5.914 0.564 -11.014 0.564 -15.05Zm-97.072 -3.214c3.214 -23.314 17.443 -34.836 38.872 -34.836 23.058 0 34.586 12.6 36.214 34.836z"/></g><g id="Layer_2"><path class="st0" d="M1130.264 390.922a48.333 48.333 0 0 0 -8.878 -16.222c-1.786 -2.143 -3.772 -4.078 -5.864 -5.914 -16.528 -14.028 -46.622 -16.478 -63.508 -1.786 -2.45 2.143 -6.986 6.528 -7.45 7.65l0.208 -18.008h-23.364v131.4h23.364v-77.228c0 -20.914 12.857 -32.95 34.278 -32.95 22.8 0 30.043 15.814 30.043 32.95v77.228h23.364V404.95c0 -4.742 -0.764 -9.486 -2.192 -14.028"/></g></svg>